<?xml version="1.0" encoding="UTF-8"?>
<svg version="1.1" xmlns="http://www.w3.org/2000/svg" width="500" height="500">
<path d="M0 0 C2.44485202 -0.00407476 4.8897022 -0.00942167 7.33454895 -0.01593018 C13.23858535 -0.02809907 19.14251617 -0.0264437 25.04654944 -0.01769225 C29.85238747 -0.01086853 34.65819353 -0.01001902 39.46403503 -0.0132637 C40.15259066 -0.0137234 40.84114629 -0.0141831 41.55056724 -0.01465673 C42.95011621 -0.01561607 44.34966516 -0.01658872 45.74921411 -0.0175745 C58.81915119 -0.02609347 71.88902476 -0.01634948 84.95895141 -0.0001734 C96.13103191 0.01322659 107.30301884 0.01089751 118.47509766 -0.00292969 C131.503847 -0.01904766 144.53254092 -0.02526983 157.56129885 -0.0160929 C158.95519796 -0.01513742 160.34909708 -0.01419431 161.74299622 -0.0132637 C162.4285096 -0.01280088 163.11402298 -0.01233805 163.82030949 -0.0118612 C168.61062269 -0.00928987 173.40090022 -0.01360177 178.19120789 -0.02070236 C184.65928221 -0.03008075 191.12722268 -0.02323842 197.5952816 -0.00601959 C199.95454812 -0.00208748 202.31382963 -0.00313181 204.67308998 -0.00980759 C221.80659497 -0.05378091 239.04421877 0.43024271 255.29101562 6.51318359 C256.11287354 6.81248779 256.93473145 7.11179199 257.78149414 7.42016602 C271.05470017 12.44686504 283.56121939 19.8387406 294.10351562 29.38818359 C294.10351562 30.04818359 294.10351562 30.70818359 294.10351562 31.38818359 C296.08351563 32.37818359 296.08351563 32.37818359 298.10351562 33.38818359 C298.10351562 34.04818359 298.10351562 34.70818359 298.10351562 35.38818359 C298.76351563 35.38818359 299.42351562 35.38818359 300.10351562 35.38818359 C300.10351562 36.04818359 300.10351562 36.70818359 300.10351562 37.38818359 C300.76351563 37.38818359 301.42351562 37.38818359 302.10351562 37.38818359 C303.83007812 39.28662109 303.83007812 39.28662109 305.72851562 41.76318359 C306.67597656 42.98134766 306.67597656 42.98134766 307.64257812 44.22412109 C309.10351562 46.38818359 309.10351562 46.38818359 309.10351562 48.38818359 C309.76351563 48.38818359 310.42351562 48.38818359 311.10351562 48.38818359 C327.720328 76.82139589 332.42653514 102.60701201 332.36230469 135.17724609 C332.36502111 137.51519886 332.36858566 139.85315076 332.3729248 142.19110107 C332.38197368 148.48858526 332.37853576 154.78600326 332.37216663 161.08348846 C332.36758604 167.03203335 332.37110001 172.98057041 332.37402102 178.92911553 C332.37970063 191.42816378 332.37320386 203.9271825 332.36242029 216.4262259 C332.35348695 227.11082551 332.35503966 237.79538164 332.36425781 248.47998047 C332.37500258 260.93957673 332.37915153 273.39914723 332.37303329 285.85874748 C332.36993137 292.43524086 332.36945496 299.0117044 332.37610626 305.5881958 C332.38192646 311.77388711 332.37779813 317.95949712 332.36631775 324.14517975 C332.36369599 326.40166337 332.36439316 328.65815395 332.36884308 330.9146347 C332.42155376 360.38299178 328.82111429 389.705091 311.10351562 414.38818359 C310.44351562 414.38818359 309.78351563 414.38818359 309.10351562 414.38818359 C308.83539063 415.13068359 308.56726563 415.87318359 308.29101562 416.63818359 C307.15074812 419.27880308 306.00971257 421.24371203 304.10351562 423.38818359 C303.44351562 423.38818359 302.78351563 423.38818359 302.10351562 423.38818359 C302.10351562 424.04818359 302.10351562 424.70818359 302.10351562 425.38818359 C301.44351562 425.38818359 300.78351563 425.38818359 300.10351562 425.38818359 C300.10351562 426.04818359 300.10351562 426.70818359 300.10351562 427.38818359 C299.44351562 427.38818359 298.78351563 427.38818359 298.10351562 427.38818359 C298.10351562 428.04818359 298.10351562 428.70818359 298.10351562 429.38818359 C297.44351562 429.38818359 296.78351563 429.38818359 296.10351562 429.38818359 C296.10351562 430.04818359 296.10351562 430.70818359 296.10351562 431.38818359 C295.44351562 431.38818359 294.78351563 431.38818359 294.10351562 431.38818359 C294.10351562 432.04818359 294.10351562 432.70818359 294.10351562 433.38818359 C271.67903613 452.77104486 244.09726865 462.55614684 214.53785706 462.52862549 C213.52183047 462.53159661 212.50580388 462.53456773 211.45898861 462.53762889 C208.07950275 462.54624919 204.70005259 462.54781846 201.32055664 462.54931641 C198.88688584 462.55394936 196.45321576 462.55897466 194.01954651 462.56436157 C187.42403279 462.57744288 180.82852642 462.58396001 174.2330029 462.58837223 C170.10502512 462.5911456 165.97704963 462.59538491 161.84907341 462.5998764 C150.3923091 462.61206159 138.93554662 462.62236194 127.47877598 462.6257515 C126.74700405 462.62597106 126.01523213 462.62619063 125.2612853 462.62641685 C124.1611819 462.62674426 124.1611819 462.62674426 123.03885418 462.62707829 C121.5530024 462.62752174 120.06715061 462.6279683 118.58129883 462.62841797 C117.84428405 462.6286394 117.10726927 462.62886083 116.34792071 462.62908897 C104.42415603 462.63303119 92.50045268 462.65047097 80.57671166 462.67377749 C68.29871618 462.69758026 56.02075136 462.70995741 43.74273247 462.71111941 C36.86369253 462.71203125 29.98473251 462.71765829 23.1057148 462.73593903 C16.62710847 462.75309652 10.14861267 462.75452649 3.66998863 462.74580002 C1.305885 462.74503498 -1.05822709 462.74930097 -3.42230988 462.75925827 C-38.28557464 462.89736521 -68.41733034 455.04448487 -94.89648438 431.38818359 C-94.89648438 430.72818359 -94.89648438 430.06818359 -94.89648438 429.38818359 C-95.75306641 429.0459375 -95.75306641 429.0459375 -96.62695312 428.69677734 C-110.97556689 420.42348025 -120.09120828 397.29595659 -125.20898438 382.26318359 C-125.45140869 381.55991943 -125.69383301 380.85665527 -125.94360352 380.13208008 C-129.12926498 370.32978513 -130.19674546 360.42334205 -130.16390991 350.15768433 C-130.16844103 349.09432425 -130.17297214 348.03096417 -130.17764056 346.93538105 C-130.19019966 343.40772161 -130.18866969 339.88021824 -130.18701172 336.35253906 C-130.1930023 333.8085765 -130.19980907 331.26461574 -130.20736694 328.72065735 C-130.22315482 322.54798032 -130.22947302 316.3753595 -130.2305917 310.20266418 C-130.23154588 305.17878607 -130.23567455 300.15492045 -130.24199295 295.1310463 C-130.25958507 280.85002476 -130.26883509 266.56903314 -130.267332 252.28800069 C-130.26725209 251.5199087 -130.26717218 250.75181672 -130.26708984 249.96044922 C-130.26700808 249.19140637 -130.26692632 248.42236352 -130.26684208 247.63001634 C-130.26602992 235.17865761 -130.28515538 222.72742004 -130.31336658 210.27609633 C-130.34218469 197.45450023 -130.35590196 184.63296304 -130.35417902 171.81133378 C-130.35351816 164.62772949 -130.35887605 157.44425222 -130.38053513 150.26067734 C-130.40079396 143.49881693 -130.39998268 136.73726753 -130.38550186 129.97537804 C-130.38342337 127.50603657 -130.38805674 125.03667802 -130.40022278 122.56736565 C-130.47958947 105.33003777 -129.29809083 89.25316677 -122.64648438 73.13818359 C-122.20260376 72.03506836 -122.20260376 72.03506836 -121.74975586 70.90966797 C-117.07035492 59.62340728 -110.90742036 49.64002927 -102.89648438 40.38818359 C-102.2596875 39.61861328 -101.62289062 38.84904297 -100.96679688 38.05615234 C-89.15042637 24.12802085 -72.90546483 13.7464935 -55.89648438 7.38818359 C-54.94773437 7.01048828 -53.99898438 6.63279297 -53.02148438 6.24365234 C-35.96618272 -0.08102202 -17.93105085 -0.05073784 0 0 Z M-40.89648438 129.38818359 C-37.97010064 131.58702034 -37.97010064 131.58702034 -34.96679688 133.67724609 C-30.07865329 137.03416398 -27.13712599 140.52832656 -24.12304688 145.63037109 C-23.51589844 146.50048828 -23.51589844 146.50048828 -22.89648438 147.38818359 C-22.23648438 147.38818359 -21.57648438 147.38818359 -20.89648438 147.38818359 C-20.66960937 148.04044922 -20.44273437 148.69271484 -20.20898438 149.36474609 C-18.45802859 153.3981978 -16.2067465 157.02847781 -13.89648438 160.76318359 C-13.15628052 161.96672485 -13.15628052 161.96672485 -12.40112305 163.19458008 C-9.05531508 168.60157296 -5.59551926 173.91712038 -2.03710938 179.18579102 C1.89477032 185.02583412 5.70951437 190.94033181 9.50845337 196.86740112 C10.58650181 198.54914227 11.66664747 200.22953843 12.74682617 201.90991211 C13.41109619 202.94817139 14.07536621 203.98643066 14.75976562 205.05615234 C15.35595703 205.98709717 15.95214844 206.91804199 16.56640625 207.87719727 C17.87161941 210.0093633 19.03260127 212.13166128 20.10351562 214.38818359 C20.76351562 214.38818359 21.42351562 214.38818359 22.10351562 214.38818359 C22.41289062 215.17193359 22.72226563 215.95568359 23.04101562 216.76318359 C24.03226601 219.31148487 24.03226601 219.31148487 25.10351562 221.38818359 C25.204205 223.0927675 25.24187559 224.80124785 25.2487793 226.50878906 C25.25515915 227.57684784 25.261539 228.64490662 25.26811218 229.74533081 C25.26922501 230.9036441 25.27033783 232.0619574 25.27148438 233.25537109 C25.27647697 235.03477585 25.27647697 235.03477585 25.28157043 236.85012817 C25.286641 239.36362316 25.28897872 241.8771249 25.28881836 244.390625 C25.29100258 248.24018439 25.30915098 252.08945629 25.328125 255.93896484 C25.33105931 258.37776594 25.33304385 260.81656841 25.33398438 263.25537109 C25.34116989 264.40963593 25.34835541 265.56390076 25.35575867 266.75314331 C25.35268204 267.82750641 25.34960541 268.90186951 25.34643555 270.00878906 C25.34786057 270.95317841 25.34928558 271.89756775 25.35075378 272.87057495 C25.08788543 275.54734481 24.57784534 277.14872073 23.10351562 279.38818359 C20.50195312 280.65380859 20.50195312 280.65380859 17.47851562 281.63818359 C16.475625 281.97333984 15.47273438 282.30849609 14.43945312 282.65380859 C13.66859375 282.89615234 12.89773437 283.13849609 12.10351562 283.38818359 C12.10351562 283.71818359 12.10351562 284.04818359 12.10351562 284.38818359 C25.46851563 284.88318359 25.46851563 284.88318359 39.10351562 285.38818359 C39.14549061 292.85739939 39.18555727 300.32618639 39.20701599 307.79541779 C39.21756379 311.27390098 39.23165235 314.75228623 39.25439453 318.23071289 C39.28034264 322.22461886 39.29000005 326.21842157 39.29882812 330.21240234 C39.3091507 331.45527512 39.31947327 332.69814789 39.33010864 333.97868347 C39.3302597 335.13950943 39.33041077 336.30033539 39.33056641 337.49633789 C39.33500763 338.5155986 39.33944885 339.53485931 39.34402466 340.58500671 C39.0870732 343.57982307 38.45229336 345.70935556 37.10351562 348.38818359 C33.71245054 350.93148241 30.13924244 352.16808014 26.10351562 353.38818359 C26.10351562 353.71818359 26.10351562 354.04818359 26.10351562 354.38818359 C44.91351563 354.38818359 63.72351563 354.38818359 83.10351562 354.38818359 C80.7698103 353.22133093 78.42127451 352.08187126 76.04101562 351.01318359 C72.98010392 349.31991329 71.8636606 348.34728545 70.10351562 345.38818359 C69.72319889 342.7547617 69.72319889 342.7547617 69.71583557 339.70179749 C69.70593094 338.54237137 69.69602631 337.38294525 69.68582153 336.18838501 C69.69032318 334.92021942 69.69482483 333.65205383 69.69946289 332.34545898 C69.69375923 330.9933872 69.68679498 329.64132024 69.67866516 328.28926086 C69.66071754 324.61978815 69.66190511 320.95055435 69.66760755 317.28105092 C69.67069723 314.21689424 69.66460939 311.15278361 69.6585688 308.08863348 C69.64451981 300.85942441 69.64608781 293.6303335 69.6574707 286.40112305 C69.66895159 278.94494667 69.65487785 271.48912998 69.62807423 264.03300101 C69.60591706 257.62947242 69.59927989 251.22605674 69.60515064 244.82249254 C69.60852151 240.99877748 69.60609682 237.17529299 69.58889961 233.35161018 C69.57343213 229.75553807 69.57738313 226.15999872 69.59620476 222.56394768 C69.60164777 220.61712695 69.58737487 218.67028232 69.57250977 216.72351074 C69.58726097 214.98014183 69.58726097 214.98014183 69.60231018 213.20155334 C69.60262411 211.68977052 69.60262411 211.68977052 69.60294437 210.14744663 C70.23963557 206.6378594 71.68352881 204.9577499 74.10351562 202.38818359 C77.23302311 200.30184527 80.41113982 199.89168939 84.10351562 199.38818359 C84.10351562 199.05818359 84.10351562 198.72818359 84.10351562 198.38818359 C78.82351562 198.38818359 73.54351562 198.38818359 68.10351562 198.38818359 C72.0488552 189.94954061 76.61749678 182.22486069 81.64086914 174.39428711 C84.46629754 169.98830379 87.20622211 165.56676843 89.79101562 161.01318359 C97.69606667 147.34682415 105.43403716 135.36054419 121.10351562 130.38818359 C121.10351562 130.05818359 121.10351562 129.72818359 121.10351562 129.38818359 C109.55351562 129.38818359 98.00351563 129.38818359 86.10351562 129.38818359 C87.94096002 130.61314653 89.81114535 131.79254344 91.72851562 132.88818359 C94.10351562 134.38818359 94.10351562 134.38818359 95.10351562 136.38818359 C95.28918107 142.66102333 93.47654008 147.20362935 90.16210938 152.44287109 C88.8645222 154.45825172 88.8645222 154.45825172 89.10351562 157.38818359 C88.44351563 157.38818359 87.78351563 157.38818359 87.10351562 157.38818359 C86.80960937 157.96181641 86.51570313 158.53544922 86.21289062 159.12646484 C82.3407683 166.45901833 77.99246389 173.42679081 73.50683594 180.3972168 C67.22103482 188.85652308 67.22103482 188.85652308 64.10351562 198.38818359 C56.84351563 198.38818359 49.58351563 198.38818359 42.10351562 198.38818359 C41.44351563 196.73818359 40.78351563 195.08818359 40.10351562 193.38818359 C38.59907808 191.01687684 37.06980597 188.69901652 35.47851562 186.38818359 C31.6446151 180.72995567 27.98055325 175.0043431 24.43164062 169.16162109 C22.58406176 166.14212061 20.6854564 163.15758895 18.77539062 160.17724609 C18.17178711 159.23502197 17.56818359 158.29279785 16.94628906 157.32202148 C15.75964901 155.47304511 14.57039862 153.62574008 13.37792969 151.78051758 C8.66862445 144.43649978 4.45064151 136.9956539 0.10351562 129.38818359 C-13.42648438 129.38818359 -26.95648438 129.38818359 -40.89648438 129.38818359 Z M134.10351562 198.38818359 C134.10351562 198.71818359 134.10351562 199.04818359 134.10351562 199.38818359 C134.99103516 199.44425781 134.99103516 199.44425781 135.89648438 199.50146484 C140.71019014 199.9019526 144.11193339 200.4266871 148.10351562 203.38818359 C147.61779697 207.75965151 146.26676642 209.4290135 143.10351562 212.38818359 C143.10351562 213.04818359 143.10351562 213.70818359 143.10351562 214.38818359 C142.44351563 214.38818359 141.78351563 214.38818359 141.10351562 214.38818359 C140.56726563 215.06880859 140.03101563 215.74943359 139.47851562 216.45068359 C137.53803767 218.85074843 135.80084529 220.59983053 133.47851562 222.57568359 C129.14265176 226.26768797 125.18050467 230.27523197 121.20507812 234.34912109 C119.10351562 236.38818359 119.10351562 236.38818359 117.10351562 237.38818359 C117.10351562 238.04818359 117.10351562 238.70818359 117.10351562 239.38818359 C116.44351563 239.38818359 115.78351563 239.38818359 115.10351562 239.38818359 C115.10351562 240.04818359 115.10351562 240.70818359 115.10351562 241.38818359 C114.46414063 241.65630859 113.82476562 241.92443359 113.16601562 242.20068359 C110.77219876 243.27486112 110.77219876 243.27486112 110.10351562 246.38818359 C109.44351563 246.38818359 108.78351563 246.38818359 108.10351562 246.38818359 C108.10351562 247.04818359 108.10351562 247.70818359 108.10351562 248.38818359 C107.44351563 248.38818359 106.78351563 248.38818359 106.10351562 248.38818359 C106.10351562 249.04818359 106.10351562 249.70818359 106.10351562 250.38818359 C105.52682129 250.63818115 104.95012695 250.88817871 104.35595703 251.14575195 C101.79264358 252.55965854 100.10753754 254.17330433 98.06445312 256.26708984 C97.319375 257.023125 96.57429688 257.77916016 95.80664062 258.55810547 C95.03835937 259.34765625 94.27007812 260.13720703 93.47851562 260.95068359 C91.94688394 262.5166625 90.41313367 264.08057299 88.87695312 265.64208984 C87.8625415 266.68345093 87.8625415 266.68345093 86.82763672 267.74584961 C85.10351562 269.38818359 85.10351562 269.38818359 83.10351562 270.38818359 C83.10351562 271.04818359 83.10351562 271.70818359 83.10351562 272.38818359 C82.51054687 272.64341797 81.91757813 272.89865234 81.30664062 273.16162109 C78.89127024 274.50634858 77.59139856 275.88032726 75.85351562 278.01318359 C75.33273438 278.64482422 74.81195313 279.27646484 74.27539062 279.92724609 C73.88867188 280.40935547 73.50195312 280.89146484 73.10351562 281.38818359 C74.11671875 281.40945313 74.11671875 281.40945313 75.15039062 281.43115234 C82.55614094 281.82712454 82.55614094 281.82712454 85.60351562 284.95068359 C86.09851563 285.75505859 86.59351563 286.55943359 87.10351562 287.38818359 C87.76351562 287.38818359 88.42351562 287.38818359 89.10351562 287.38818359 C89.36003906 288.12939453 89.6165625 288.87060547 89.88085938 289.63427734 C91.15932504 292.5138885 92.50287814 294.18266671 94.66601562 296.45068359 C98.93160658 301.06719154 102.56558272 305.97897758 106.22070312 311.07958984 C106.84203125 311.84142578 107.46335937 312.60326172 108.10351562 313.38818359 C108.76351562 313.38818359 109.42351562 313.38818359 110.10351562 313.38818359 C110.37164062 313.94505859 110.63976562 314.50193359 110.91601562 315.07568359 C112.21251058 317.60043694 113.52827885 320.02532844 115.10351562 322.38818359 C115.76351562 322.38818359 116.42351562 322.38818359 117.10351562 322.38818359 C117.35488281 322.94892578 117.60625 323.50966797 117.86523438 324.08740234 C119.29173542 326.73790428 121.00272582 328.87766442 122.91601562 331.20068359 C125.39474427 334.23723865 127.76946141 337.27543547 129.97851562 340.51318359 C130.67976563 341.46193359 131.38101563 342.41068359 132.10351562 343.38818359 C132.76351562 343.38818359 133.42351562 343.38818359 134.10351562 343.38818359 C135.98022528 346.99724063 137.48669368 350.61559905 139.10351562 354.38818359 C153.29351562 354.38818359 167.48351562 354.38818359 182.10351562 354.38818359 C179.40651922 351.69118719 177.04044152 349.44880821 174.04101562 347.20068359 C173.36941406 346.69150391 172.6978125 346.18232422 172.00585938 345.65771484 C170.02674033 344.21616161 170.02674033 344.21616161 167.10351562 343.38818359 C167.10351562 342.72818359 167.10351562 342.06818359 167.10351562 341.38818359 C166.44351563 341.38818359 165.78351563 341.38818359 165.10351562 341.38818359 C165.10351562 340.72818359 165.10351562 340.06818359 165.10351562 339.38818359 C164.44351563 339.38818359 163.78351563 339.38818359 163.10351562 339.38818359 C162.74580078 338.54900391 162.74580078 338.54900391 162.38085938 337.69287109 C160.81760048 334.87231223 158.88770412 332.85217724 156.66601562 330.51318359 C152.77295146 326.34016075 149.15607022 322.02792172 145.66601562 317.51318359 C141.99997201 312.77107323 138.24956161 308.13100889 134.35351562 303.57568359 C129.64453234 298.06210931 125.17162811 292.40769243 120.77294922 286.64501953 C119.28479829 284.70068683 117.78829954 282.76298861 116.29101562 280.82568359 C115.81019531 280.19283447 115.329375 279.55998535 114.83398438 278.90795898 C113.63712197 277.36406599 112.37534475 275.87092965 111.10351562 274.38818359 C110.44351563 274.38818359 109.78351563 274.38818359 109.10351562 274.38818359 C108.83796875 273.80939453 108.57242188 273.23060547 108.29882812 272.63427734 C106.68309007 269.59816826 104.53764645 267.12351327 102.34570312 264.48583984 C100.7447072 261.78227126 100.52091521 260.48442289 101.10351562 257.38818359 C103.22070312 254.74755859 103.22070312 254.74755859 105.97851562 252.13818359 C106.8834375 251.26677734 107.78835938 250.39537109 108.72070312 249.49755859 C111.10351562 247.38818359 111.10351562 247.38818359 113.10351562 246.38818359 C113.10351562 245.72818359 113.10351562 245.06818359 113.10351562 244.38818359 C113.76351562 244.38818359 114.42351562 244.38818359 115.10351562 244.38818359 C115.10351562 243.72818359 115.10351562 243.06818359 115.10351562 242.38818359 C115.76351562 242.38818359 116.42351562 242.38818359 117.10351562 242.38818359 C117.10351562 241.72818359 117.10351562 241.06818359 117.10351562 240.38818359 C117.96976563 239.99566406 117.96976563 239.99566406 118.85351562 239.59521484 C124.62375026 236.49972439 129.1681721 231.53440205 133.10351562 226.38818359 C133.76351562 226.05818359 134.42351562 225.72818359 135.10351562 225.38818359 C135.10351562 224.72818359 135.10351562 224.06818359 135.10351562 223.38818359 C135.76351562 223.38818359 136.42351562 223.38818359 137.10351562 223.38818359 C137.10351562 222.72818359 137.10351562 222.06818359 137.10351562 221.38818359 C137.68875 221.12134766 138.27398437 220.85451172 138.87695312 220.57958984 C141.13971935 219.36881142 142.82235134 218.03451369 144.72851562 216.32568359 C146.52164143 214.72439876 147.95007879 213.46490201 150.10351562 212.38818359 C150.10351562 211.72818359 150.10351562 211.06818359 150.10351562 210.38818359 C150.80476563 210.14068359 151.50601563 209.89318359 152.22851562 209.63818359 C155.17586413 208.46938059 155.17586413 208.46938059 157.79101562 206.51318359 C164.08297788 202.47683045 170.65803165 200.03561698 178.10351562 199.38818359 C178.10351562 199.05818359 178.10351562 198.72818359 178.10351562 198.38818359 C163.58351563 198.38818359 149.06351562 198.38818359 134.10351562 198.38818359 Z " fill="#020202" transform="translate(149.896484375,18.61181640625)"/>
<path d="M0 0 C0.66 0 1.32 0 2 0 C0.53417985 3.42280517 -1.38062255 5.56480483 -4.0625 8.125 C-6.91571933 10.77905 -6.91571933 10.77905 -9 14 C-9.66 14 -10.32 14 -11 14 C-9.57442379 10.82096506 -7.8226848 8.46341568 -5.5 5.875 C-4.8915625 5.19179687 -4.283125 4.50859375 -3.65625 3.8046875 C-2.46695076 2.50880012 -1.24373566 1.24373566 0 0 Z " fill="#4B494A" transform="translate(258,154)"/>
<path d="M0 0 C0 3 0 3 -1.3125 4.60546875 C-1.869375 5.12753906 -2.42625 5.64960937 -3 6.1875 C-3.556875 6.71730469 -4.11375 7.24710938 -4.6875 7.79296875 C-5.120625 8.19128906 -5.55375 8.58960938 -6 9 C-6.66 8.67 -7.32 8.34 -8 8 C-7.04578192 6.85073734 -6.08647955 5.70569459 -5.125 4.5625 C-4.59132812 3.92441406 -4.05765625 3.28632812 -3.5078125 2.62890625 C-2 1 -2 1 0 0 Z " fill="#626262" transform="translate(57,49)"/>
<path d="M0 0 C3.3 1.65 6.6 3.3 10 5 C6.89953913 6.03348696 5.94389782 6.17755913 3 5 C2.67 4.01 2.34 3.02 2 2 C1.34 2 0.68 2 0 2 C0 1.34 0 0.68 0 0 Z " fill="#626262" transform="translate(418,31)"/>
<path d="M0 0 C0.66 1.32 1.32 2.64 2 4 C0.625 5.5 0.625 5.5 -1 7 C-1.66 7 -2.32 7 -3 7 C-1.125 2.25 -1.125 2.25 0 0 Z " fill="#545253" transform="translate(225,202)"/>
</svg>
